{
  "source": "C:\\Users\\Peter\\Desktop\\stuff\\MIUN\\quantitative_research\\video_compression\\videos\\BVI-HD\\BVI-HD_CDVL_videos\\ORIG\\RockWave_1920x1080_30fps.mp4",
  "output": "C:\\Users\\Peter\\Desktop\\stuff\\MIUN\\quantitative_research\\video_compression\\compressed_videos\\BVI-HD\\vp9\\3\\RockWave_1920x1080_30fps_vp9.webm",
  "codec": "vp9",
  "ok": "Input #0, mov,mp4,m4a,3gp,3g2,mj2, from 'C:\\Users\\Peter\\Desktop\\stuff\\MIUN\\quantitative_research\\video_compression\\videos\\BVI-HD\\BVI-HD_CDVL_videos\\ORIG\\RockWave_1920x1080_30fps.mp4':\n  Metadata:\n    major_brand     : isom\n    minor_version   : 512\n    compatible_brands: isomiso2avc1mp41\n    encoder         : Lavf54.28.101\n  Duration: 00:00:05.00, start: 0.000000, bitrate: 303557 kb/s\n  Stream #0:0[0x1](und): Video: h264 (High 4:4:4 Predictive) (avc1 / 0x31637661), yuv420p(progressive), 1920x1080, 303553 kb/s, 30 fps, 30 tbr, 30 tbn (default)\n    Metadata:\n      handler_name    : VideoHandler\n      vendor_id       : [0][0][0][0]\n[out#0/webm @ 000002f8d0289700] Codec AVOption b:a (set bitrate (in bits/s)) has not been used for any stream. The most likely reason is either wrong type (e.g. a video option with no video streams) or that it is a private option of some decoder which was not actually used for any stream.\nStream mapping:\n  Stream #0:0 -> #0:0 (h264 (native) -> vp9 (libvpx-vp9))\nPress [q] to stop, [?] for help\n[libvpx-vp9 @ 000002f8d23e0440] v1.15.2-100-g40561f514\nOutput #0, webm, to 'C:\\Users\\Peter\\Desktop\\stuff\\MIUN\\quantitative_research\\video_compression\\compressed_videos\\BVI-HD\\vp9\\3\\RockWave_1920x1080_30fps_vp9.webm':\n  Metadata:\n    major_brand     : isom\n    minor_version   : 512\n    compatible_brands: isomiso2avc1mp41\n    encoder         : Lavf62.3.100\n  Stream #0:0(und): Video: vp9, yuv420p(tv, progressive), 1920x1080, q=2-31, 3000 kb/s, 30 fps, 1k tbn (default)\n    Metadata:\n      encoder         : Lavc62.11.100 libvpx-vp9\n      handler_name    : VideoHandler\n      vendor_id       : [0][0][0][0]\n    Side data:\n      cpb: bitrate max/min/avg: 0/0/0 buffer size: 3000000 vbv_delay: N/A\nframe=    0 fps=0.0 q=0.0 size=       0KiB time=N/A bitrate=N/A speed=N/A elapsed=0:00:00.52    \nframe=    0 fps=0.0 q=0.0 size=       0KiB time=N/A bitrate=N/A speed=N/A elapsed=0:00:01.15    \nframe=    2 fps=1.0 q=31.0 size=       1KiB time=00:00:00.06 bitrate=  76.1kbits/s speed=0.0348x elapsed=0:00:01.91    \nframe=    5 fps=2.0 q=60.0 size=       1KiB time=00:00:00.16 bitrate=  30.4kbits/s speed=0.0668x elapsed=0:00:02.49    \nframe=    8 fps=2.6 q=63.0 size=       1KiB time=00:00:00.26 bitrate=  19.0kbits/s speed=0.0868x elapsed=0:00:03.07    \nframe=   10 fps=2.8 q=63.0 size=       1KiB time=00:00:00.33 bitrate=  15.2kbits/s speed=0.0927x elapsed=0:00:03.59    \nframe=   13 fps=3.2 q=63.0 size=       1KiB time=00:00:00.43 bitrate=  11.7kbits/s speed=0.105x elapsed=0:00:04.12    \nframe=   15 fps=3.2 q=63.0 size=       1KiB time=00:00:00.50 bitrate=  10.1kbits/s speed=0.107x elapsed=0:00:04.66    \nframe=   18 fps=3.5 q=63.0 size=       1KiB time=00:00:00.60 bitrate=   8.5kbits/s speed=0.116x elapsed=0:00:05.18    \nframe=   20 fps=3.5 q=63.0 size=       1KiB time=00:00:00.66 bitrate=   7.6kbits/s speed=0.115x elapsed=0:00:05.79    \nframe=   20 fps=3.2 q=63.0 size=       1KiB time=00:00:00.66 bitrate=   7.6kbits/s speed=0.105x elapsed=0:00:06.32    \nframe=   22 fps=3.2 q=63.0 size=       1KiB time=00:00:00.73 bitrate=   6.9kbits/s speed=0.105x elapsed=0:00:06.96    \nframe=   24 fps=3.2 q=63.0 size=       1KiB time=00:00:00.80 bitrate=   6.3kbits/s speed=0.105x elapsed=0:00:07.58    \nframe=   25 fps=3.0 q=63.0 size=       1KiB time=00:00:00.83 bitrate=   6.1kbits/s speed=0.101x elapsed=0:00:08.22    \nframe=   27 fps=3.1 q=63.0 size=       1KiB time=00:00:00.90 bitrate=   5.6kbits/s speed=0.102x elapsed=0:00:08.80    \nframe=   29 fps=3.1 q=63.0 size=       1KiB time=00:00:00.96 bitrate=   5.2kbits/s speed=0.103x elapsed=0:00:09.38    \nframe=   31 fps=3.1 q=43.0 size=       1KiB time=00:00:01.03 bitrate=   4.9kbits/s speed=0.104x elapsed=0:00:09.94    \nframe=   33 fps=3.1 q=63.0 size=       1KiB time=00:00:01.10 bitrate=   4.6kbits/s speed=0.105x elapsed=0:00:10.48    \nframe=   35 fps=3.2 q=63.0 size=       1KiB time=00:00:01.16 bitrate=   4.3kbits/s speed=0.106x elapsed=0:00:11.04    \nframe=   37 fps=3.2 q=63.0 size=       1KiB time=00:00:01.23 bitrate=   4.1kbits/s speed=0.106x elapsed=0:00:11.58    \nframe=   39 fps=3.2 q=63.0 size=       1KiB time=00:00:01.30 bitrate=   3.9kbits/s speed=0.107x elapsed=0:00:12.15    \nframe=   40 fps=3.2 q=63.0 size=       1KiB time=00:00:01.33 bitrate=   3.8kbits/s speed=0.105x elapsed=0:00:12.68    \nframe=   42 fps=3.2 q=63.0 size=       1KiB time=00:00:01.36 bitrate=   3.7kbits/s speed=0.103x elapsed=0:00:13.21    \nframe=   44 fps=3.1 q=63.0 size=       1KiB time=00:00:01.46 bitrate=   3.5kbits/s speed=0.104x elapsed=0:00:14.06    \nframe=   46 fps=3.1 q=63.0 size=       1KiB time=00:00:01.50 bitrate=   3.4kbits/s speed=0.101x elapsed=0:00:14.88    \nframe=   48 fps=3.0 q=63.0 size=       1KiB time=00:00:01.56 bitrate=   3.2kbits/s speed=0.0993x elapsed=0:00:15.77    \nframe=   49 fps=3.0 q=63.0 size=       1KiB time=00:00:01.63 bitrate=   3.1kbits/s speed=0.0994x elapsed=0:00:16.42    \nframe=   50 fps=2.9 q=63.0 size=       1KiB time=00:00:01.66 bitrate=   3.0kbits/s speed=0.0974x elapsed=0:00:17.11    \nframe=   52 fps=2.9 q=63.0 size=       1KiB time=00:00:01.73 bitrate=   2.9kbits/s speed=0.0966x elapsed=0:00:17.94    \nframe=   54 fps=2.9 q=63.0 size=       1KiB time=00:00:01.80 bitrate=   2.8kbits/s speed=0.0966x elapsed=0:00:18.62    \nframe=   55 fps=2.8 q=63.0 size=       1KiB time=00:00:01.83 bitrate=   2.8kbits/s speed=0.0948x elapsed=0:00:19.33    \nframe=   56 fps=2.8 q=63.0 size=       1KiB time=00:00:01.86 bitrate=   2.7kbits/s speed=0.0938x elapsed=0:00:19.90    \nframe=   58 fps=2.8 q=63.0 size=       1KiB time=00:00:01.93 bitrate=   2.6kbits/s speed=0.0944x elapsed=0:00:20.48    \nframe=   59 fps=2.8 q=63.0 size=       1KiB time=00:00:01.96 bitrate=   2.6kbits/s speed=0.0931x elapsed=0:00:21.13    \nframe=   61 fps=2.8 q=47.0 size=       1KiB time=00:00:02.03 bitrate=   2.5kbits/s speed=0.0935x elapsed=0:00:21.74    \nframe=   64 fps=2.9 q=63.0 size=       1KiB time=00:00:02.13 bitrate=   2.4kbits/s speed=0.0955x elapsed=0:00:22.33    \nframe=   66 fps=2.9 q=63.0 size=       1KiB time=00:00:02.20 bitrate=   2.3kbits/s speed=0.0961x elapsed=0:00:22.89    \nframe=   67 fps=2.8 q=63.0 size=       1KiB time=00:00:02.23 bitrate=   2.3kbits/s speed=0.0949x elapsed=0:00:23.54    \nframe=   69 fps=2.9 q=63.0 size=       1KiB time=00:00:02.30 bitrate=   2.2kbits/s speed=0.0952x elapsed=0:00:24.14    \nframe=   72 fps=2.9 q=63.0 size=       1KiB time=00:00:02.36 bitrate=   2.1kbits/s speed=0.0958x elapsed=0:00:24.70    \nframe=   73 fps=2.9 q=63.0 size=       1KiB time=00:00:02.43 bitrate=   2.1kbits/s speed=0.0959x elapsed=0:00:25.36    \nframe=   75 fps=2.9 q=63.0 size=       1KiB time=00:00:02.50 bitrate=   2.0kbits/s speed=0.0963x elapsed=0:00:25.96    \nframe=   77 fps=2.9 q=63.0 size=       1KiB time=00:00:02.56 bitrate=   2.0kbits/s speed=0.0963x elapsed=0:00:26.64    \nframe=   79 fps=2.9 q=63.0 size=       1KiB time=00:00:02.63 bitrate=   1.9kbits/s speed=0.0966x elapsed=0:00:27.26    \nframe=   80 fps=2.9 q=63.0 size=       1KiB time=00:00:02.66 bitrate=   1.9kbits/s speed=0.0958x elapsed=0:00:27.82    \nframe=   83 fps=2.9 q=63.0 size=       1KiB time=00:00:02.76 bitrate=   1.8kbits/s speed=0.0974x elapsed=0:00:28.40    \nframe=   85 fps=2.9 q=63.0 size=       1KiB time=00:00:02.83 bitrate=   1.8kbits/s speed=0.0976x elapsed=0:00:29.03    \nframe=   87 fps=2.9 q=63.0 size=       1KiB time=00:00:02.90 bitrate=   1.7kbits/s speed=0.098x elapsed=0:00:29.59    \nframe=   90 fps=3.0 q=63.0 size=       1KiB time=00:00:03.00 bitrate=   1.7kbits/s speed=0.0996x elapsed=0:00:30.13    \nframe=   92 fps=3.0 q=63.0 size=       1KiB time=00:00:03.06 bitrate=   1.7kbits/s speed=0.0997x elapsed=0:00:30.75    \nframe=   94 fps=3.0 q=63.0 size=       1KiB time=00:00:03.13 bitrate=   1.6kbits/s speed= 0.1x elapsed=0:00:31.31    \nframe=   96 fps=3.0 q=63.0 size=       1KiB time=00:00:03.20 bitrate=   1.6kbits/s speed= 0.1x elapsed=0:00:31.87    \nframe=   99 fps=3.0 q=63.0 size=       1KiB time=00:00:03.30 bitrate=   1.5kbits/s speed=0.102x elapsed=0:00:32.48    \nframe=  101 fps=3.0 q=46.0 size=       1KiB time=00:00:03.36 bitrate=   1.5kbits/s speed=0.102x elapsed=0:00:33.15    \nframe=  103 fps=3.1 q=63.0 size=       1KiB time=00:00:03.43 bitrate=   1.5kbits/s speed=0.102x elapsed=0:00:33.75    \nframe=  106 fps=3.1 q=63.0 size=       1KiB time=00:00:03.50 bitrate=   1.4kbits/s speed=0.102x elapsed=0:00:34.28    \nframe=  108 fps=3.1 q=63.0 size=       1KiB time=00:00:03.60 bitrate=   1.4kbits/s speed=0.103x elapsed=0:00:34.86    \nframe=  110 fps=3.1 q=63.0 size=       1KiB time=00:00:03.66 bitrate=   1.4kbits/s speed=0.103x elapsed=0:00:35.43    \nframe=  112 fps=3.1 q=63.0 size=       1KiB time=00:00:03.73 bitrate=   1.4kbits/s speed=0.104x elapsed=0:00:36.00    \nframe=  115 fps=3.1 q=63.0 size=       1KiB time=00:00:03.83 bitrate=   1.3kbits/s speed=0.105x elapsed=0:00:36.57    \nframe=  117 fps=3.1 q=63.0 size=       1KiB time=00:00:03.90 bitrate=   1.3kbits/s speed=0.105x elapsed=0:00:37.23    \nframe=  120 fps=3.2 q=63.0 size=       1KiB time=00:00:04.00 bitrate=   1.3kbits/s speed=0.106x elapsed=0:00:37.80    \nframe=  122 fps=3.2 q=63.0 size=       1KiB time=00:00:04.06 bitrate=   1.2kbits/s speed=0.106x elapsed=0:00:38.39    \nframe=  124 fps=3.2 q=63.0 size=       1KiB time=00:00:04.13 bitrate=   1.2kbits/s speed=0.106x elapsed=0:00:38.97    \nframe=  126 fps=3.2 q=63.0 size=       1KiB time=00:00:04.20 bitrate=   1.2kbits/s speed=0.106x elapsed=0:00:39.50    \nframe=  126 fps=3.1 q=63.0 size=       1KiB time=00:00:04.20 bitrate=   1.2kbits/s speed=0.105x elapsed=0:00:40.03    \nframe=  126 fps=3.1 q=63.0 size=       1KiB time=00:00:04.20 bitrate=   1.2kbits/s speed=0.104x elapsed=0:00:40.57    \nframe=  126 fps=3.1 q=63.0 size=       1KiB time=00:00:04.20 bitrate=   1.2kbits/s speed=0.102x elapsed=0:00:41.10    \nframe=  126 fps=3.0 q=63.0 size=       1KiB time=00:00:04.20 bitrate=   1.2kbits/s speed=0.101x elapsed=0:00:41.63    \nframe=  126 fps=3.0 q=63.0 size=       1KiB time=00:00:04.20 bitrate=   1.2kbits/s speed=0.0996x elapsed=0:00:42.17    \nframe=  126 fps=2.9 q=63.0 size=       1KiB time=00:00:04.20 bitrate=   1.2kbits/s speed=0.0982x elapsed=0:00:42.78    \nframe=  126 fps=2.9 q=63.0 size=       1KiB time=00:00:04.20 bitrate=   1.2kbits/s speed=0.097x elapsed=0:00:43.31    \nframe=  126 fps=2.9 q=63.0 size=       1KiB time=00:00:04.20 bitrate=   1.2kbits/s speed=0.0957x elapsed=0:00:43.90    \nframe=  126 fps=2.8 q=63.0 size=       1KiB time=00:00:04.20 bitrate=   1.2kbits/s speed=0.0945x elapsed=0:00:44.44    \n[out#0/webm @ 000002f8d0289700] video:2580KiB audio:0KiB subtitle:0KiB other streams:0KiB global headers:0KiB muxing overhead: 0.066852%\nframe=  150 fps=3.3 q=62.0 Lsize=    2581KiB time=00:00:05.00 bitrate=4229.5kbits/s speed=0.112x elapsed=0:00:44.78    \n",
  "seconds": 45.36476016044617,
  "probe_out": {}
}